<svg id="Layer_1" enable-background="new 0 0 1580 1580" height="512" viewBox="0 0 1580 1580" width="512" xmlns="http://www.w3.org/2000/svg"><g><g><path d="m1368.4 1473.1h-1156.8c-13.3 0-24-10.7-24-24v-736c0-13.3 10.7-24 24-24s24 10.7 24 24v712h1108.8v-712c0-13.3 10.7-24 24-24s24 10.7 24 24v736c0 13.3-10.8 24-24 24z"/><path d="m1483.8 814.5c-16.5 0-32.4-5.5-45.6-15.9l-648.2-510-648.2 510c-32.1 25.2-78.7 19.7-103.9-12.4-12.2-15.5-17.7-34.9-15.3-54.5 2.3-19.6 12.2-37.2 27.7-49.4l724.9-570.3c8.7-6.9 21-6.9 29.7 0l724.9 570.3c32.1 25.2 37.6 71.8 12.4 103.9-12.2 15.5-29.8 25.4-49.4 27.7-3 .4-6 .6-9 .6zm-693.8-580.4c5.2 0 10.5 1.7 14.8 5.1l663.1 521.6c5.5 4.3 12.3 6.2 19.2 5.4s13.1-4.3 17.4-9.7c8.9-11.3 6.9-27.7-4.4-36.5l-710.1-558.6-710.1 558.6c-5.5 4.3-8.9 10.5-9.7 17.4s1.1 13.7 5.4 19.2c8.9 11.3 25.2 13.2 36.5 4.4l663.1-521.6c4.3-3.6 9.6-5.3 14.8-5.3z"/></g><path d="m1244.5 512.4c-13.3 0-24-10.7-24-24v-275.9h-119v144.5c0 13.3-10.7 24-24 24s-24-10.7-24-24v-168.5c0-13.3 10.7-24 24-24h167c13.3 0 24 10.7 24 24v299.9c0 13.3-10.7 24-24 24z"/><g><path d="m1104.5 1473.1h-629c-13.2 0-24-10.7-24-23.9-.1-49.9 1.9-174.5 24.5-255.1 6.1-21.9 13.6-39.8 23.5-56.4 8.4-14 32.5-49.3 75.8-73.6 40-22.5 78.4-25.9 103.5-24.7 4.7.2 9.2 1.8 13 4.6l95.5 69.7 101.1-70c3.7-2.6 8.1-4 12.6-4.2 25.1-1.2 63.5 2.2 103.5 24.7 43.3 24.4 67.5 59.6 75.8 73.6 9.9 16.6 17.4 34.5 23.5 56.4 22.6 80.6 24.7 205.3 24.5 255.1.2 13.1-10.6 23.8-23.8 23.8zm-315.3-48h291.2c-.7-52.5-4.5-153.3-22.6-218.1-5-17.9-10.7-31.7-18.5-44.7-6.4-10.7-24.9-37.7-58.2-56.4-26.8-15.1-52.5-18.7-71.1-18.8l-109.2 75.6c-8.4 5.8-19.6 5.7-27.8-.3l-103.2-75.3c-18.6.1-44.2 3.8-70.8 18.8-33.3 18.7-51.8 45.7-58.2 56.4-7.8 13-13.5 26.8-18.5 44.8-18.1 64.7-21.9 165.6-22.6 218.1z"/><g><path d="m608 1473.1c-13.3 0-24-10.7-24-24v-176.6c0-13.3 10.7-24 24-24s24 10.7 24 24v176.6c0 13.3-10.7 24-24 24z"/><path d="m972 1473.1c-13.3 0-24-10.7-24-24v-176.6c0-13.3 10.7-24 24-24s24 10.7 24 24v176.6c0 13.3-10.8 24-24 24z"/></g><g><path d="m790.9 1053c-45.5 0-88.2-19.5-120.1-54.8-31.3-34.7-48.6-80.6-48.6-129.4v-67.8c0-10.2 6.5-19.3 16.2-22.7 7.8-2.7 30.8-12.8 43.1-26.5 8.6-9.5 22.7-10.8 32.6-2.8 1.3.9 18.1 13.1 46.9 19.1 39.9 8.5 83.1 2 128.3-19.3 9.4-4.4 20.5-2.3 27.7 5.2 4.6 4.8 19.2 19 31.4 26.5 7.1 4.4 11.4 12.1 11.4 20.4v67.7c0 48.8-17.3 94.7-48.6 129.4-32.1 35.5-74.8 55-120.3 55zm-120.8-236v51.7c0 75.1 54.2 136.2 120.7 136.2s120.7-61.1 120.7-136.2v-55.1c-6.4-4.9-12.4-10-17.3-14.5-93.5 38.4-161.7 14.7-192.2-1.3-11 8.5-22.7 14.9-31.9 19.2z"/><path d="m646.2 825.1c-9.3 0-18.1-5.4-22-14.5-8.2-19-9.5-39-10.6-56.6-.9-14.4-2-32.3 2.2-50 3.7-15.7 12.8-32.2 27.8-50.5 2.3-2.8 4.8-5.6 7.3-8.3 40-42.8 105.5-59.5 118.2-62.5 24.9-5.7 48.8-7.8 71-6.1 15.6 1.2 28.9 3.4 40.5 6.7 16.9 4.7 30.1 13.9 38.3 26.6 4.1 6.3 6.4 12.5 8.5 17.9 1.6 4.1 3.1 8.1 4.6 9.8 2.6 3 6.3 6 10.5 9.3 5.1 4 10.9 8.6 16.3 14.7 12.8 14.4 27.2 38.6 29.5 63.2 2.1 23.1-6.8 42.8-14.9 57.5-.2.4-.7 1.2-1.3 2.5-13.6 26.2-16.5 30.3-20.5 33.9-9.8 8.9-25 8.3-33.9-1.5-8.3-9-8.3-22.7-.6-31.8 1.2-1.9 4.3-7.2 12.3-22.7.9-1.8 1.6-3 1.8-3.4 7.1-12.9 9.9-22.2 9.2-30.1-.9-10.2-8.3-25.3-17.6-35.7-2.6-2.9-6.1-5.7-10.1-8.9-5.5-4.3-11.7-9.3-17.4-16-6.7-8-10.1-16.6-12.7-23.5-1.4-3.6-2.7-7-4.1-9.1-2.3-3.6-7.9-5.6-11-6.5-8.6-2.4-18.9-4.1-31.3-5-17.4-1.3-36.4.3-56.6 5-28.5 6.6-70.3 23.2-93.9 48.5-1.8 1.9-3.5 3.9-5.2 5.9-12.6 15.4-16.9 25.5-18.3 31.2-2.6 10.8-1.7 24.1-1 35.9.9 14.4 1.8 29.2 6.7 40.5 5.3 12.2-.3 26.3-12.5 31.6-2.8 1.3-6.1 2-9.2 2zm273.2-41.8s0 .1 0 0z"/></g><g><path d="m703.8 1106.2c-3.4 0-6.9-.7-10.2-2.3-12-5.6-17.2-19.9-11.5-31.9 3.9-8.3 10.5-25 11-42.9.2-6.7-.6-9.3-2.2-15.1-.4-1.3-.8-2.7-1.1-4.2-3.3-12.8 4.3-25.9 17.2-29.3 12.8-3.4 25.9 4.3 29.3 17.2.3 1.2.6 2.4 1 3.5 2 7.2 4.2 15.3 3.9 29.1-.7 25.3-8.8 47.7-15.5 62-4.2 8.8-12.9 13.9-21.9 13.9z"/><path d="m874.6 1106.4c-8.7 0-17.1-4.8-21.4-13-11.2-21.8-17.4-44.6-17.9-66-.3-10.9 1.1-18.2 2.5-23.9 2.4-10.7 12-18.7 23.4-18.7 13.3 0 24 10.7 24 24 0 2-.2 4-.7 5.9-.7 2.9-1.3 5.7-1.2 11.4.5 18 7.1 34.5 12.7 45.3 6.1 11.8 1.4 26.3-10.4 32.3-3.5 1.8-7.3 2.7-11 2.7z"/></g></g></g></svg>